<svg xmlns="http://www.w3.org/2000/svg" fill="currentColor" viewBox="0 0 212 40"><path d="M66.66 7.28v16.25L80.33 12.6h8.64l-9.44 7.61 10.01 11.13h-8.38l-6.44-7.26-9.05 7.26h-5.83V7.28zm30.76 5.32 8.25 14.65h.67l8.23-14.66h7.4l-11.14 18.76h-9.67L90.03 12.59zm33.78-6.21v4.19h-6.78v-4.2zm-6.78 24.96V12.66h6.79v18.69zm10.94 0V7.28h6.82v24.07zm9.83-9.35q0-2.6 1.17-4.45a9 9 0 0 1 3.26-3.04q2.1-1.18 5.04-1.74a35 35 0 0 1 6.5-.56q3.54 0 6.49.56 2.94.55 5.04 1.74 2.1 1.18 3.27 3.04a8 8 0 0 1 1.16 4.45q0 2.6-1.16 4.45a9 9 0 0 1-3.27 3.04q-2.1 1.18-5.04 1.74-2.95.57-6.5.56a35 35 0 0 1-6.49-.56 16 16 0 0 1-5.04-1.74 9 9 0 0 1-3.26-3.04 8 8 0 0 1-1.17-4.45m15.97 4.67q4.54 0 6.84-1.02 2.31-1.02 2.31-3.65t-2.3-3.67-6.85-1.04-6.85 1.04a3.7 3.7 0 0 0-2.3 3.67q0 2.63 2.3 3.65t6.85 1.02m49.79-9.14c-2.65-4.77-8.42-5.24-13.7-5.35-4.27-.03-8.79-.04-12.43 1.71l-.68-1.29h-4.16v18.75h6.81v-9.37q0-2.63 2.3-3.65c3.31-1.45 10.8-1.32 13.7 0q2.3 1.02 2.3 3.65v9.37h6.82v-9.37q0-2.6-.96-4.45M9.62 3.87l-3.44-.44V34.4l3.44-.29zM3.43 7.3 0 6.87v25.86l3.43-.28zM12.37 0v36.07L26.97 40l12.88-5.65V2.57zm25.78 19.6-1.73 1.9v-3.84l-3.54-.07 1.79-1.91 3.48.1zm0-5.73-1.73 1.86V11.9l-3.54-.17v1.96l-1.81 1.9v-3.94l-3.73-.18 1.88-1.9 3.66.2v1.97l1.79-1.86 3.48.2v3.82zm0-5.72-1.73 1.81V6.11l-3.54-.26V7.8l-1.81 1.85V5.71l-3.73-.28v2.01l-1.91 1.9V5.29l-3.93-.3 1.98-1.89 3.85.33v2l1.88-1.84 3.66.3v1.96l1.79-1.8 3.48.29z"/></svg>
